<svg xmlns="http://www.w3.org/2000/svg" xmlns:xlink="http://www.w3.org/1999/xlink" viewBox="0 0 190.83691 95"><defs><style>.a{fill:#f25123;}.b{fill:url(#a);}.c{fill:none;stroke-miterlimit:10;stroke-width:0.25px;stroke:url(#e);}.d{fill:#3f19c7;}</style><linearGradient id="a" x1="105.05176" y1="93.1333" x2="276.61112" y2="93.1333" gradientUnits="userSpaceOnUse"><stop offset="0" stop-color="#453366"/><stop offset="1" stop-color="#f25123"/></linearGradient><linearGradient id="e" x1="105.05176" y1="93.1333" x2="234.71191" y2="93.1333" gradientUnits="userSpaceOnUse"><stop offset="0" stop-color="#3f19c7"/><stop offset="1" stop-color="#f25123"/></linearGradient></defs><title>Bergen STEM</title><path class="a" d="M44,75V91H84s8-21-19-23c6,4,11,8,8,16A32.54177,32.54177,0,0,0,61,70c-7-6-15-13-12-28,0,0-4,5-5,15,0,5,.263,17.19128,7,26C51,83,47,82,44,75Z" transform="translate(-44 -42)"/><path d="M118.62744,63.67871c8.80322,0,13.32861,5.26563,13.32861,14.48047v1.81006h-8.55664V77.583c0-4.11328-1.6455-5.67676-4.52539-5.67676-2.87939,0-4.5249,1.56348-4.5249,5.67676,0,4.19629,1.81006,7.32275,7.73389,12.50586,7.56933,6.66455,9.95508,11.43652,9.95508,18.01855,0,9.21485-4.60743,14.48047-13.49317,14.48047s-13.49316-5.26562-13.49316-14.48047v-3.53808h8.55664v4.11425c0,4.11329,1.81055,5.59473,4.68994,5.59473s4.68994-1.48144,4.68994-5.59473c0-4.19629-1.81055-7.32226-7.73437-12.50586-7.56934-6.66455-9.95508-11.43652-9.95508-18.01855C105.29883,68.94434,109.82422,63.67871,118.62744,63.67871Z" transform="translate(-44 -42)"/><path d="M134.58691,64.33691h27.97364v8.22754h-9.46192v49.36524h-9.0498V72.56445h-9.46192Z" transform="translate(-44 -42)"/><path d="M175.55762,88.6084h12.42383v8.22754H175.55762v16.86621h15.63232v8.22754H166.50732V64.33691h24.68262v8.22754H175.55762Z" transform="translate(-44 -42)"/><path d="M215.87109,105.22754h.16455L222.124,64.33691h12.58789v57.59278h-8.55664V80.62744h-.16406l-6.08887,41.30225H211.3457l-6.582-40.72656h-.16406v40.72656h-7.89844V64.33691h12.58789Z" transform="translate(-44 -42)"/><path class="b" d="M118.62744,63.67871c8.80322,0,13.32861,5.26563,13.32861,14.48047v1.81006h-8.55664V77.583c0-4.11328-1.6455-5.67676-4.52539-5.67676-2.87939,0-4.5249,1.56348-4.5249,5.67676,0,4.19629,1.81006,7.32275,7.73389,12.50586,7.56933,6.66455,9.95508,11.43652,9.95508,18.01855,0,9.21485-4.60743,14.48047-13.49317,14.48047s-13.49316-5.26562-13.49316-14.48047v-3.53808h8.55664v4.11425c0,4.11329,1.81055,5.59473,4.68994,5.59473s4.68994-1.48144,4.68994-5.59473c0-4.19629-1.81055-7.32226-7.73437-12.50586-7.56934-6.66455-9.95508-11.43652-9.95508-18.01855C105.29883,68.94434,109.82422,63.67871,118.62744,63.67871Z" transform="translate(-44 -42)"/><path class="b" d="M134.58691,64.33691h27.97364v8.22754h-9.46192v49.36524h-9.0498V72.56445h-9.46192Z" transform="translate(-44 -42)"/><path class="b" d="M175.55762,88.6084h12.42383v8.22754H175.55762v16.86621h15.63232v8.22754H166.50732V64.33691h24.68262v8.22754H175.55762Z" transform="translate(-44 -42)"/><path class="b" d="M215.87109,105.22754h.16455L222.124,64.33691h12.58789v57.59278h-8.55664V80.62744h-.16406l-6.08887,41.30225H211.3457l-6.582-40.72656h-.16406v40.72656h-7.89844V64.33691h12.58789Z" transform="translate(-44 -42)"/><path class="c" d="M118.62744,63.67871c8.80322,0,13.32861,5.26563,13.32861,14.48047v1.81006h-8.55664V77.583c0-4.11328-1.6455-5.67676-4.52539-5.67676-2.87939,0-4.5249,1.56348-4.5249,5.67676,0,4.19629,1.81006,7.32275,7.73389,12.50586,7.56933,6.66455,9.95508,11.43652,9.95508,18.01855,0,9.21485-4.60743,14.48047-13.49317,14.48047s-13.49316-5.26562-13.49316-14.48047v-3.53808h8.55664v4.11425c0,4.11329,1.81055,5.59473,4.68994,5.59473s4.68994-1.48144,4.68994-5.59473c0-4.19629-1.81055-7.32226-7.73437-12.50586-7.56934-6.66455-9.95508-11.43652-9.95508-18.01855C105.29883,68.94434,109.82422,63.67871,118.62744,63.67871Z" transform="translate(-44 -42)"/><path class="c" d="M134.58691,64.33691h27.97364v8.22754h-9.46192v49.36524h-9.0498V72.56445h-9.46192Z" transform="translate(-44 -42)"/><path class="c" d="M175.55762,88.6084h12.42383v8.22754H175.55762v16.86621h15.63232v8.22754H166.50732V64.33691h24.68262v8.22754H175.55762Z" transform="translate(-44 -42)"/><path class="c" d="M215.87109,105.22754h.16455L222.124,64.33691h12.58789v57.59278h-8.55664V80.62744h-.16406l-6.08887,41.30225H211.3457l-6.582-40.72656h-.16406v40.72656h-7.89844V64.33691h12.58789Z" transform="translate(-44 -42)"/><rect class="d" y="54" width="38" height="10"/><rect class="d" x="37" y="54" width="12" height="7"/><rect class="d" y="67" width="25" height="10"/><rect class="d" x="23" y="67" width="13" height="7"/><rect class="d" y="80" width="9" height="15"/><rect class="d" x="8" y="80" width="15" height="7"/><polygon class="d" points="9 95 15 86 8.123 86 7 90.491 7 90.491 9 95"/></svg>